<svg width="30" height="30" viewBox="0 0 30 30" fill="none" xmlns="http://www.w3.org/2000/svg">
<rect x="2" y="2" width="26" height="26" rx="5" fill="#A10000"/>
<path d="M16 25H14C12.39 25 9.5 22.48 9.5 20C9.5 19.7348 9.60536 19.4804 9.79289 19.2929C9.98043 19.1054 10.2348 19 10.5 19C10.7652 19 11.0196 19.1054 11.2071 19.2929C11.3946 19.4804 11.5 19.7348 11.5 20C11.5 21.41 13.45 22.94 14.01 23H16.01C16.56 22.94 18.51 21.41 18.51 20C18.51 19.7348 18.6154 19.4804 18.8029 19.2929C18.9904 19.1054 19.2448 19 19.51 19C19.7752 19 20.0296 19.1054 20.2171 19.2929C20.4046 19.4804 20.51 19.7348 20.51 20C20.5 22.48 17.61 25 16 25Z" fill="white"/>
<path d="M20.0002 5C18.8842 5.00291 17.8021 5.38358 16.9302 6.08C18.3417 6.30147 19.6279 7.0194 20.5574 8.10464C21.4868 9.18988 21.9984 10.5712 22.0002 12V14.58C23.0514 14.1196 23.9123 13.3116 24.4383 12.2915C24.9642 11.2715 25.1233 10.1016 24.8888 8.97819C24.6542 7.85476 24.0404 6.84621 23.1502 6.12184C22.2601 5.39746 21.1478 5.00135 20.0002 5Z" fill="white"/>
<path d="M7.99998 12C8.00177 10.5712 8.51339 9.18988 9.44281 8.10464C10.3722 7.0194 11.6584 6.30147 13.07 6.08C12.198 5.38358 11.1159 5.00291 9.99998 5C8.85234 5.00135 7.74009 5.39746 6.84994 6.12184C5.95979 6.84621 5.34593 7.85476 5.11139 8.97819C4.87685 10.1016 5.03593 11.2715 5.5619 12.2915C6.08788 13.3116 6.94874 14.1196 7.99998 14.58V12Z" fill="white"/>
<path d="M12 16C13.1046 16 14 15.1046 14 14C14 12.8954 13.1046 12 12 12C10.8954 12 10 12.8954 10 14C10 15.1046 10.8954 16 12 16Z" fill="black"/>
<path d="M18 16C19.1046 16 20 15.1046 20 14C20 12.8954 19.1046 12 18 12C16.8954 12 16 12.8954 16 14C16 15.1046 16.8954 16 18 16Z" fill="black"/>
<path d="M15 19C15.8284 19 16.5 18.3284 16.5 17.5C16.5 16.6716 15.8284 16 15 16C14.1716 16 13.5 16.6716 13.5 17.5C13.5 18.3284 14.1716 19 15 19Z" fill="black"/>
<path d="M18 14C17.7348 14 17.4804 13.8946 17.2929 13.7071C17.1054 13.5196 17 13.2652 17 13V11C17 10.7348 17.1054 10.4804 17.2929 10.2929C17.4804 10.1054 17.7348 10 18 10C18.2652 10 18.5196 10.1054 18.7071 10.2929C18.8946 10.4804 19 10.7348 19 11V13C19 13.2652 18.8946 13.5196 18.7071 13.7071C18.5196 13.8946 18.2652 14 18 14Z" fill="black"/>
<path d="M12 14C11.7348 14 11.4804 13.8946 11.2929 13.7071C11.1054 13.5196 11 13.2652 11 13V11C11 10.7348 11.1054 10.4804 11.2929 10.2929C11.4804 10.1054 11.7348 10 12 10C12.2652 10 12.5196 10.1054 12.7071 10.2929C12.8946 10.4804 13 10.7348 13 11V13C13 13.2652 12.8946 13.5196 12.7071 13.7071C12.5196 13.8946 12.2652 14 12 14Z" fill="black"/>
</svg>
